<?xml version="1.0" standalone="no"?>
<!DOCTYPE svg PUBLIC "-//W3C//DTD SVG 20010904//EN"
 "http://www.w3.org/TR/2001/REC-SVG-20010904/DTD/svg10.dtd">
<svg version="1.0" xmlns="http://www.w3.org/2000/svg"
 width="640.000000pt" height="241.000000pt" viewBox="0 0 640.000000 241.000000"
 preserveAspectRatio="xMidYMid meet">

<g transform="translate(0.000000,241.000000) scale(0.100000,-0.100000)"
fill="#000000" stroke="none">
<path d="M440 1830 c0 -6 -11 -91 -25 -188 -32 -232 -135 -1034 -135 -1056 0
-15 37 -16 423 -16 458 0 511 5 614 56 154 75 258 330 189 462 -19 36 -63 76
-111 100 l-39 20 51 26 c94 47 135 128 135 266 -1 177 -61 269 -207 317 -42
14 -114 17 -472 21 -308 2 -423 0 -423 -8z m613 -311 c74 -38 88 -95 36 -145
-30 -29 -31 -29 -175 -32 -116 -3 -144 -1 -144 10 0 7 7 50 16 96 l17 82 114
0 c65 0 124 -5 136 -11z m-16 -451 c48 -14 86 -64 79 -102 -4 -16 -14 -38 -24
-49 -38 -43 -71 -51 -229 -55 l-153 -4 1 28 c0 16 6 65 12 109 l12 80 75 5
c92 6 184 2 227 -12z"/>
<path d="M1760 1833 c0 -5 -9 -78 -20 -163 -11 -85 -20 -161 -20 -167 0 -10
52 -13 213 -15 l212 -3 -155 -79 c-193 -98 -288 -154 -300 -176 -8 -14 -56
-376 -76 -570 -3 -30 -8 -63 -10 -72 -5 -17 10 -18 211 -18 163 0 217 3 220
13 2 6 27 190 55 407 28 217 64 495 80 617 17 121 30 224 30 227 0 3 -99 6
-220 6 -121 0 -220 -3 -220 -7z"/>
<path d="M2325 1818 c-7 -35 -155 -1202 -155 -1227 0 -21 3 -21 195 -21 107 0
195 3 195 8 0 25 80 636 84 639 6 7 61 -89 219 -384 l140 -263 198 0 c198 0
199 0 203 22 3 13 37 282 76 598 39 316 73 592 77 613 l6 37 -199 -2 -198 -3
-40 -327 c-22 -181 -43 -328 -46 -328 -10 0 -100 168 -221 413 l-122 247 -203
0 c-203 0 -204 0 -209 -22z"/>
<path d="M4065 1830 c-119 -24 -242 -95 -326 -188 -63 -71 -134 -214 -154
-310 -64 -311 95 -624 364 -718 106 -37 184 -44 509 -44 267 0 302 2 302 16 0
8 11 99 24 202 14 103 32 246 40 318 9 73 19 146 22 163 l7 31 -277 0 -276 0
15 -35 c8 -20 37 -75 65 -123 28 -47 52 -89 53 -93 4 -15 -60 -89 -94 -108
-79 -45 -203 -19 -283 57 -138 132 -104 363 66 458 l53 29 353 3 c266 2 352 6
352 15 0 7 9 82 20 167 11 85 20 158 20 163 0 10 -804 7 -855 -3z"/>
<path d="M4967 1233 c-43 -335 -80 -620 -83 -636 l-6 -27 441 0 441 0 0 170 0
170 -214 0 c-118 0 -217 3 -219 8 -2 4 -1 32 2 62 l6 55 213 3 212 2 0 170 0
170 -191 0 -190 0 6 48 c4 26 8 53 10 60 3 9 49 12 185 12 l180 0 0 164 c0
140 -2 165 -16 170 -9 3 -170 6 -358 6 l-342 0 -77 -607z"/>
</g>
</svg>
