<?xml version="1.0" standalone="no"?>
<!DOCTYPE svg PUBLIC "-//W3C//DTD SVG 20010904//EN"
 "http://www.w3.org/TR/2001/REC-SVG-20010904/DTD/svg10.dtd">
<svg version="1.0" xmlns="http://www.w3.org/2000/svg"
 width="1920.000000pt" height="645.000000pt" viewBox="0 0 1920.000000 645.000000"
 preserveAspectRatio="xMidYMid meet">

<g transform="translate(0.000000,645.000000) scale(0.100000,-0.100000)"
fill="#000000" stroke="none">
<path d="M5428 6440 c-187 -32 -376 -140 -503 -289 -149 -174 -237 -424 -221
-626 17 -206 74 -341 202 -485 97 -108 284 -224 456 -285 68 -24 77 -30 73
-49 -2 -11 -11 -61 -20 -111 -141 -813 -507 -1594 -1056 -2250 -169 -201 -467
-491 -652 -634 -50 -38 -62 -43 -94 -38 -42 7 -76 36 -94 79 -16 39 -8 114 71
668 104 727 125 914 142 1271 14 295 1 612 -32 774 -124 601 -587 1124 -1181
1333 -259 91 -598 124 -891 86 -856 -111 -1465 -721 -1605 -1610 -11 -72 -17
-170 -17 -289 -1 -170 1 -187 32 -315 83 -340 173 -534 356 -764 287 -362 603
-560 896 -561 86 0 116 4 165 23 112 42 227 146 282 257 89 175 95 335 17 493
-47 97 -111 159 -276 270 -92 62 -159 117 -203 164 -201 217 -239 547 -96 843
79 165 178 264 336 340 130 62 205 79 360 79 209 1 334 -40 482 -160 123 -98
213 -226 260 -369 23 -69 27 -101 31 -235 5 -176 -6 -306 -48 -605 -28 -195
-63 -504 -221 -1950 -63 -580 -73 -755 -50 -858 79 -354 432 -626 784 -604
181 11 331 69 587 226 1315 807 2286 2141 2675 3676 105 414 138 662 139 1030
0 343 -33 582 -115 830 -146 439 -559 714 -971 645z"/>
<path d="M13840 5579 c-79 -16 -203 -82 -262 -142 -260 -260 -198 -701 121
-862 322 -162 697 1 785 341 62 238 -57 499 -277 610 -106 54 -253 75 -367 53z"/>
<path d="M7610 5560 c-59 -10 -167 -52 -216 -83 -22 -13 -62 -49 -91 -79 -164
-174 -196 -468 -73 -662 100 -157 262 -246 449 -246 167 0 307 56 416 165 95
95 144 223 145 375 0 137 -45 243 -154 358 -56 59 -86 81 -160 117 -118 58
-208 74 -316 55z"/>
<path d="M11740 5534 c-139 -37 -270 -133 -328 -241 -19 -36 -103 -300 -222
-697 -105 -352 -193 -643 -196 -647 -2 -5 -28 7 -57 25 -79 51 -203 110 -298
144 -307 108 -708 119 -956 26 -397 -149 -731 -491 -1002 -1024 -86 -171 -100
-205 -196 -462 -36 -97 -93 -238 -127 -314 -181 -402 -442 -744 -643 -844 -81
-41 -197 -45 -268 -11 -79 38 -137 121 -137 196 0 20 96 374 214 788 340 1190
328 1147 323 1247 -15 248 -190 448 -444 504 -89 20 -140 20 -222 1 -149 -35
-283 -136 -348 -260 -35 -67 -579 -1945 -608 -2100 -24 -125 -16 -368 15 -475
44 -156 130 -290 245 -383 259 -210 645 -282 1055 -197 130 27 208 54 320 110
146 74 261 161 424 323 82 81 150 146 151 145 1 -2 18 -39 39 -82 90 -193 250
-351 442 -436 182 -80 494 -92 791 -30 258 54 527 179 721 336 l67 54 15 -22
c139 -205 299 -319 554 -393 135 -39 272 -49 471 -37 372 24 653 142 933 390
46 41 84 72 86 71 1 -2 15 -24 31 -49 15 -25 56 -74 89 -109 199 -207 492
-313 831 -298 334 14 607 109 857 297 112 85 274 245 355 353 l52 69 27 -54
c148 -293 457 -518 815 -593 222 -47 568 -60 771 -30 340 50 579 170 832 414
219 213 380 463 501 776 109 282 175 630 175 917 0 102 2 119 18 127 9 5 123
38 252 74 401 112 560 178 718 297 195 146 282 312 282 534 0 167 -55 316
-155 425 -131 140 -342 218 -522 191 -329 -49 -586 -346 -559 -646 l7 -73 -53
-15 c-66 -19 -170 -36 -221 -36 -32 0 -49 9 -105 57 -180 152 -403 259 -662
315 -90 19 -134 22 -315 22 -226 0 -323 -14 -495 -70 -249 -82 -533 -276 -741
-508 -252 -279 -444 -602 -619 -1041 -157 -392 -290 -639 -446 -826 -117 -141
-279 -269 -365 -289 -159 -38 -338 81 -339 224 0 44 59 263 245 911 293 1024
288 1004 293 1101 5 104 -9 161 -61 254 -95 169 -323 295 -499 275 -184 -20
-327 -94 -422 -219 -56 -74 -69 -107 -136 -362 -114 -427 -299 -1047 -405
-1354 -109 -315 -278 -563 -494 -725 -115 -87 -171 -108 -286 -109 -74 -1 -99
3 -142 23 -129 58 -170 173 -124 346 10 39 58 203 105 365 48 162 218 747 377
1300 160 553 318 1097 351 1210 70 238 81 330 54 444 -44 188 -194 335 -387
381 -80 18 -227 18 -299 -1z m-1401 -2203 c158 -60 244 -189 281 -424 39 -239
-64 -581 -257 -862 -116 -168 -261 -269 -453 -315 -103 -24 -247 -27 -311 -5
-101 34 -198 140 -234 254 -26 83 -32 273 -11 384 48 256 205 545 419 774 101
107 233 191 339 213 62 13 166 5 227 -19z m6370 -80 c123 -38 207 -114 253
-229 20 -50 22 -75 22 -202 0 -157 -16 -240 -85 -436 -91 -257 -258 -485 -449
-613 -129 -86 -180 -103 -327 -109 -105 -4 -131 -1 -194 18 -61 18 -81 30
-129 78 -95 96 -126 191 -117 357 6 112 40 244 106 416 150 387 369 633 641
720 75 24 201 24 279 0z"/>
</g>
</svg>
