<?xml version="1.0" encoding="UTF-8"?>
<!DOCTYPE svg PUBLIC "-//W3C//DTD SVG 1.1//EN" "http://www.w3.org/Graphics/SVG/1.1/DTD/svg11.dtd">
<svg xmlns="http://www.w3.org/2000/svg" version="1.1" width="1920px" height="693px" style="shape-rendering:geometricPrecision; text-rendering:geometricPrecision; image-rendering:optimizeQuality; fill-rule:evenodd; clip-rule:evenodd" xmlns:xlink="http://www.w3.org/1999/xlink">
<g><path style="opacity:0.998" fill="#ff3c64" d="M 320.5,-0.5 C 338.167,-0.5 355.833,-0.5 373.5,-0.5C 496.198,12.3956 588.698,71.7289 651,177.5C 701.323,273.661 707.657,372.661 670,474.5C 625.229,579.602 548.062,648.436 438.5,681C 416.996,686.583 395.33,690.416 373.5,692.5C 355.833,692.5 338.167,692.5 320.5,692.5C 194.548,678.638 100.715,616.638 39,506.5C -2.89536,422.318 -10.8954,334.985 15,244.5C 46.0974,148.738 106.597,78.2382 196.5,33C 235.986,14.5534 277.319,3.38676 320.5,-0.5 Z"/></g>
<g><path style="opacity:1" fill="#fffefe" d="M 321.5,167.5 C 364.193,166.158 406.527,169.325 448.5,177C 460.761,179.314 472.428,183.314 483.5,189C 498.116,198.729 502.616,211.895 497,228.5C 494.388,236.391 490.721,243.724 486,250.5C 441.442,311.114 396.275,371.281 350.5,431C 382.78,425.006 415.28,419.84 448,415.5C 461.31,414.98 468.476,421.313 469.5,434.5C 466.735,454.296 461.235,473.296 453,491.5C 444.42,505.047 432.254,513.547 416.5,517C 392.015,522.678 367.181,525.178 342,524.5C 316.03,524.471 290.197,522.637 264.5,519C 249.506,516.585 234.84,512.918 220.5,508C 198.604,499.04 191.104,483.206 198,460.5C 200,456.5 202,452.5 204,448.5C 249.495,385.016 296.328,322.516 344.5,261C 316.557,265.648 288.557,270.314 260.5,275C 252.851,276.055 245.185,276.388 237.5,276C 228.35,272.043 224.35,265.043 225.5,255C 227.461,233.647 233.961,213.814 245,195.5C 256.601,182.611 271.101,174.778 288.5,172C 299.602,170.151 310.602,168.651 321.5,167.5 Z"/></g>
<g><path style="opacity:0.973" fill="#000000" d="M 1111.5,233.5 C 1128.52,231.26 1141.02,237.593 1149,252.5C 1173.53,310.419 1197.86,368.419 1222,426.5C 1226.23,436.468 1225.06,445.634 1218.5,454C 1202.42,462.272 1189.59,458.772 1180,443.5C 1175.16,431.65 1170.33,419.816 1165.5,408C 1132.84,407.5 1100.17,407.333 1067.5,407.5C 1062.91,420.693 1057.74,433.693 1052,446.5C 1043.33,458.794 1032.16,461.627 1018.5,455C 1011.91,448.894 1009.74,441.394 1012,432.5C 1037.17,370.488 1063.17,308.821 1090,247.5C 1095.24,239.74 1102.41,235.073 1111.5,233.5 Z M 1115.5,287.5 C 1116.75,287.577 1117.58,288.244 1118,289.5C 1128.22,315.613 1138.72,341.613 1149.5,367.5C 1127.51,368.666 1105.51,368.833 1083.5,368C 1094.59,341.318 1105.26,314.485 1115.5,287.5 Z"/></g>
<g><path style="opacity:0.966" fill="#000000" d="M 1742.5,234.5 C 1750.13,233.066 1756.29,235.399 1761,241.5C 1806.09,301.346 1851.42,361.013 1897,420.5C 1897.33,360.5 1897.67,300.5 1898,240.5C 1903.58,233.372 1909.91,232.705 1917,238.5C 1918.66,309.085 1918.99,379.752 1918,450.5C 1917.21,452.587 1916.04,454.421 1914.5,456C 1905.35,459.562 1897.85,457.395 1892,449.5C 1847,390.5 1802,331.5 1757,272.5C 1756.67,332.167 1756.33,391.833 1756,451.5C 1752.72,457.109 1747.89,458.942 1741.5,457C 1739.71,456.215 1738.21,455.049 1737,453.5C 1735.34,383.248 1735.01,312.915 1736,242.5C 1737.28,239.062 1739.44,236.395 1742.5,234.5 Z"/></g>
<g><path style="opacity:0.952" fill="#000000" d="M 810.5,235.5 C 859.834,235.333 909.168,235.5 958.5,236C 965.132,239.097 967.299,244.264 965,251.5C 920.554,313.613 875.72,375.446 830.5,437C 874.5,437.333 918.5,437.667 962.5,438C 970.074,443.555 970.408,449.555 963.5,456C 912.558,457.653 861.558,457.986 810.5,457C 803.824,456.153 800.491,452.32 800.5,445.5C 800.969,441.926 802.136,438.592 804,435.5C 847.956,375.755 891.789,315.922 935.5,256C 894.5,255.667 853.5,255.333 812.5,255C 804.912,251.497 803.079,245.997 807,238.5C 808.145,237.364 809.312,236.364 810.5,235.5 Z"/></g>
<g><path style="opacity:0.979" fill="#000000" d="M 1294.5,235.5 C 1322.17,235.333 1349.84,235.5 1377.5,236C 1400.39,238.193 1419.55,247.693 1435,264.5C 1450.35,286.369 1453.68,310.036 1445,335.5C 1437.13,354.369 1423.63,367.536 1404.5,375C 1390.69,380.355 1376.35,383.022 1361.5,383C 1349.5,383.5 1337.5,383.667 1325.5,383.5C 1325.67,402.503 1325.5,421.503 1325,440.5C 1321.04,454.243 1311.87,460.077 1297.5,458C 1289.42,456.222 1284.26,451.389 1282,443.5C 1281.33,378.5 1281.33,313.5 1282,248.5C 1284.38,242.29 1288.55,237.957 1294.5,235.5 Z M 1324.5,274.5 C 1340.5,274.333 1356.5,274.5 1372.5,275C 1395.31,280.098 1405.14,294.265 1402,317.5C 1397.4,331.906 1387.57,340.406 1372.5,343C 1356.5,343.5 1340.5,343.667 1324.5,343.5C 1324.5,320.5 1324.5,297.5 1324.5,274.5 Z"/></g>
<g><path style="opacity:0.976" fill="#000000" d="M 1517.5,235.5 C 1545.17,235.333 1572.84,235.5 1600.5,236C 1623.39,238.193 1642.55,247.693 1658,264.5C 1673.35,286.369 1676.68,310.036 1668,335.5C 1660.1,354.395 1646.6,367.562 1627.5,375C 1613.69,380.355 1599.35,383.022 1584.5,383C 1572.5,383.5 1560.5,383.667 1548.5,383.5C 1548.67,402.503 1548.5,421.503 1548,440.5C 1544.32,453.935 1535.49,459.768 1521.5,458C 1513.42,456.051 1507.92,451.218 1505,443.5C 1504.33,378.833 1504.33,314.167 1505,249.5C 1506.93,242.745 1511.09,238.078 1517.5,235.5 Z M 1548.5,274.5 C 1564.17,274.333 1579.84,274.5 1595.5,275C 1618.35,280.177 1628.18,294.343 1625,317.5C 1620.39,331.907 1610.56,340.407 1595.5,343C 1579.84,343.5 1564.17,343.667 1548.5,343.5C 1548.5,320.5 1548.5,297.5 1548.5,274.5 Z"/></g>
</svg>
