<?xml version="1.0" encoding="UTF-8"?>
<!DOCTYPE svg PUBLIC "-//W3C//DTD SVG 1.1//EN" "http://www.w3.org/Graphics/SVG/1.1/DTD/svg11.dtd">
<svg xmlns="http://www.w3.org/2000/svg" version="1.1" width="1920px" height="509px" style="shape-rendering:geometricPrecision; text-rendering:geometricPrecision; image-rendering:optimizeQuality; fill-rule:evenodd; clip-rule:evenodd" xmlns:xlink="http://www.w3.org/1999/xlink">
<g><path style="opacity:0.984" fill="#00b5e6" d="M 622.5,-0.5 C 623.5,-0.5 624.5,-0.5 625.5,-0.5C 637.965,12.4652 650.631,25.2985 663.5,38C 650.988,51.8456 637.821,65.0123 624,77.5C 610.361,65.0276 597.194,52.0276 584.5,38.5C 597.188,25.4793 609.855,12.4793 622.5,-0.5 Z"/></g>
<g><path style="opacity:0.994" fill="#eb113e" d="M 936.5,7.5 C 951.167,7.5 965.833,7.5 980.5,7.5C 980.333,67.5009 980.5,127.501 981,187.5C 1002.84,178.22 1025,169.72 1047.5,162C 1115.99,143.412 1175.15,159.245 1225,209.5C 1270.93,264.634 1281.26,325.967 1256,393.5C 1224.28,459.296 1171.78,493.963 1098.5,497.5C 1032.02,495.031 981.522,465.698 947,409.5C 934.952,387.689 927.952,364.356 926,339.5C 925.333,232.5 925.333,125.5 926,18.5C 927.684,12.9845 931.184,9.31781 936.5,7.5 Z M 1086.5,209.5 C 1143.94,207.822 1184.11,233.156 1207,285.5C 1222.75,336.012 1211.25,379.179 1172.5,415C 1132.22,445.41 1089.22,449.744 1043.5,428C 1001.22,402.618 981.053,365.118 983,315.5C 988.893,268.282 1013.73,235.448 1057.5,217C 1067.1,213.686 1076.76,211.186 1086.5,209.5 Z"/></g>
<g><path style="opacity:0.991" fill="#00b6e6" d="M -0.5,345.5 C -0.5,236.833 -0.5,128.167 -0.5,19.5C 1.78821,15.5106 5.12154,12.6773 9.5,11C 24.4963,10.5001 39.4963,10.3334 54.5,10.5C 54.1667,70.1704 54.5,129.837 55.5,189.5C 79.0881,179.581 103.088,170.748 127.5,163C 206.487,145.762 269.32,169.929 316,235.5C 343.56,280.977 349.893,329.31 335,380.5C 312.249,444.916 267.415,484.083 200.5,498C 134.902,506.474 80.4022,485.974 37,436.5C 15.8054,409.75 3.30544,379.416 -0.5,345.5 Z M 158.5,212.5 C 207.07,209.535 244.57,228.202 271,268.5C 295.471,314.767 292.471,359.101 262,401.5C 225.023,442.904 180.189,454.404 127.5,436C 87.2584,417.079 63.7584,385.579 57,341.5C 53.6353,291.392 73.1353,253.225 115.5,227C 129.177,219.83 143.511,214.997 158.5,212.5 Z"/></g>
<g><path style="opacity:0.992" fill="#00b5e6" d="M 895.5,508.5 C 892.833,508.5 890.167,508.5 887.5,508.5C 854.141,500.987 822.475,488.821 792.5,472C 764.608,453.722 748.442,427.889 744,394.5C 743.5,333.834 743.333,273.168 743.5,212.5C 723.167,212.5 702.833,212.5 682.5,212.5C 682.5,193.833 682.5,175.167 682.5,156.5C 702.833,156.5 723.167,156.5 743.5,156.5C 743.333,111.165 743.5,65.8321 744,20.5C 745.833,16 749,12.8333 753.5,11C 768.496,10.5001 783.496,10.3334 798.5,10.5C 798.5,59.1667 798.5,107.833 798.5,156.5C 831.833,156.5 865.167,156.5 898.5,156.5C 898.5,175.167 898.5,193.833 898.5,212.5C 865.167,212.5 831.833,212.5 798.5,212.5C 798.333,270.501 798.5,328.501 799,386.5C 801.206,405.433 810.706,419.267 827.5,428C 853.007,440.78 879.673,450.28 907.5,456.5C 903.184,473.765 899.184,491.098 895.5,508.5 Z"/></g>
<g><path style="opacity:0.993" fill="#eb113e" d="M 1919.5,179.5 C 1919.5,181.167 1919.5,182.833 1919.5,184.5C 1883.94,231.253 1848.61,278.253 1813.5,325.5C 1848.5,373.158 1883.84,420.491 1919.5,467.5C 1919.5,468.833 1919.5,470.167 1919.5,471.5C 1905.48,482.016 1891.31,492.35 1877,502.5C 1876.5,502.167 1876,501.833 1875.5,501.5C 1843.52,458.193 1811.19,415.193 1778.5,372.5C 1745.67,415.501 1713.01,458.668 1680.5,502C 1678.72,501.956 1677.05,501.289 1675.5,500C 1662.1,490.305 1649.1,480.138 1636.5,469.5C 1672.17,421.5 1707.83,373.5 1743.5,325.5C 1708.24,277.988 1672.74,230.654 1637,183.5C 1636.33,182.5 1636.33,181.5 1637,180.5C 1651.33,169.833 1665.67,159.167 1680,148.5C 1712.67,191.999 1745.51,235.332 1778.5,278.5C 1811.49,235.332 1844.33,191.999 1877,148.5C 1890.96,159.219 1905.13,169.552 1919.5,179.5 Z"/></g>
<g><path style="opacity:0.993" fill="#eb113e" d="M 1471.5,153.5 C 1545.64,156.46 1598.81,191.126 1631,257.5C 1656.01,322.77 1647.01,382.77 1604,437.5C 1550.01,494.789 1485.51,510.955 1410.5,486C 1347.88,458.709 1311.72,411.209 1302,343.5C 1297.51,276.663 1322.01,223.496 1375.5,184C 1404.64,164.554 1436.64,154.387 1471.5,153.5 Z M 1462.5,209.5 C 1514.6,208.122 1553.1,230.122 1578,275.5C 1598.65,324.4 1591.15,368.4 1555.5,407.5C 1516.58,443.265 1472.58,451.098 1423.5,431C 1372.63,403.084 1351.13,360.251 1359,302.5C 1368.73,262.777 1392.23,234.61 1429.5,218C 1440.35,214.038 1451.35,211.204 1462.5,209.5 Z"/></g>
<g><path style="opacity:0.991" fill="#00b6e6" d="M 387.5,156.5 C 401.833,156.5 416.167,156.5 430.5,156.5C 430.333,172.17 430.5,187.837 431,203.5C 469.126,169.288 513.96,153.621 565.5,156.5C 565.5,174.833 565.5,193.167 565.5,211.5C 507.442,208.431 465.609,232.764 440,284.5C 434.837,296.649 431.837,309.315 431,322.5C 430.5,381.832 430.333,441.166 430.5,500.5C 411.833,500.5 393.167,500.5 374.5,500.5C 374.333,389.833 374.5,279.166 375,168.5C 377.12,162.211 381.286,158.211 387.5,156.5 Z"/></g>
<g><path style="opacity:0.997" fill="#00b5e5" d="M 608.5,156.5 C 622.833,156.5 637.167,156.5 651.5,156.5C 651.5,271.167 651.5,385.833 651.5,500.5C 633.167,500.5 614.833,500.5 596.5,500.5C 596.333,389.166 596.5,277.833 597,166.5C 599.194,161.171 603.027,157.838 608.5,156.5 Z"/></g>
</svg>
