<?xml version="1.0" standalone="no"?>
<!DOCTYPE svg PUBLIC "-//W3C//DTD SVG 20010904//EN"
 "http://www.w3.org/TR/2001/REC-SVG-20010904/DTD/svg10.dtd">
<svg version="1.0" xmlns="http://www.w3.org/2000/svg"
 width="1920.000000pt" height="534.000000pt" viewBox="0 0 1920.000000 534.000000"
 preserveAspectRatio="xMidYMid meet">

<g transform="translate(0.000000,534.000000) scale(0.100000,-0.100000)"
fill="#000000" stroke="none">
<path d="M17780 5333 c-446 -31 -1011 -144 -1347 -268 -377 -140 -539 -292
-478 -450 30 -80 115 -131 270 -162 123 -24 506 -24 718 1 693 80 1322 265
1539 450 87 75 123 164 98 241 -34 104 -146 160 -372 184 -89 10 -317 12 -428
4z m430 -213 c82 -13 150 -31 150 -39 0 -21 -154 -105 -290 -159 -270 -107
-651 -195 -1085 -253 -231 -31 -609 -34 -728 -6 -48 12 -77 23 -75 30 8 25
269 145 434 200 342 112 789 202 1144 230 104 8 390 6 450 -3z"/>
<path d="M2233 3959 c-101 -19 -194 -98 -255 -215 -71 -135 -87 -267 -46 -389
20 -62 20 -72 9 -148 -36 -235 -195 -655 -411 -1088 -200 -399 -349 -614 -454
-654 -42 -16 -46 -16 -87 3 -54 24 -74 45 -94 101 -37 106 -17 246 129 908
277 1248 286 1302 250 1393 -25 63 -68 83 -170 82 -307 -5 -691 -223 -908
-515 -74 -100 -110 -167 -147 -277 -30 -86 -33 -106 -33 -215 -1 -112 1 -124
28 -183 33 -72 80 -118 130 -127 70 -14 121 15 146 80 7 17 15 98 20 180 4 83
15 181 24 219 45 191 163 324 384 435 34 17 62 30 62 28 0 -2 -31 -142 -70
-310 -124 -546 -234 -1120 -275 -1440 -20 -155 -20 -469 0 -571 25 -135 68
-205 150 -249 59 -32 230 -31 335 2 321 100 611 382 917 891 91 151 242 458
313 635 179 445 304 912 317 1185 5 120 4 126 -18 159 -44 63 -151 98 -246 80z"/>
<path d="M3045 3898 c-28 -8 -58 -30 -100 -72 -99 -100 -142 -217 -133 -363 8
-139 62 -206 178 -220 139 -16 290 172 307 382 6 83 -6 135 -46 196 -48 72
-121 99 -206 77z"/>
<path d="M4840 3892 c-19 -9 -42 -30 -51 -47 -10 -16 -86 -280 -170 -585 -84
-305 -154 -557 -155 -559 -2 -2 -27 22 -56 52 -122 125 -297 165 -457 105
-207 -78 -390 -275 -532 -572 -105 -221 -155 -415 -166 -643 l-6 -133 -54 -59
c-73 -81 -153 -121 -240 -121 -45 0 -76 6 -104 20 -86 45 -133 181 -110 322
14 90 131 564 206 835 30 111 55 217 55 235 -1 67 -46 98 -189 128 -116 25
-159 20 -199 -23 -16 -17 -56 -147 -152 -497 -72 -261 -138 -518 -146 -570
-20 -118 -14 -354 11 -445 43 -156 132 -282 233 -332 53 -26 66 -28 172 -28
199 1 321 53 466 201 l90 91 33 -63 c78 -150 254 -235 454 -221 165 12 295 74
417 199 l75 76 45 -91 c38 -78 52 -97 93 -124 63 -42 102 -53 218 -60 194 -12
368 58 543 218 120 109 278 356 320 498 31 105 12 201 -39 201 -74 0 -108 -37
-189 -204 -119 -246 -240 -366 -369 -366 -172 0 -226 209 -153 595 55 294 174
777 346 1405 60 222 110 416 110 431 0 33 -39 82 -77 97 -29 12 -204 52 -225
52 -7 0 -29 -8 -48 -18z m-617 -1396 c42 -18 71 -50 99 -111 21 -46 23 -64 23
-210 -1 -143 -3 -170 -28 -259 -50 -181 -154 -371 -263 -479 -100 -101 -188
-123 -257 -66 -70 57 -99 144 -99 290 1 267 127 595 291 756 85 84 162 110
234 79z"/>
<path d="M13775 3903 c-27 -7 -64 -33 -75 -52 -8 -17 -57 -226 -270 -1171
-166 -736 -225 -974 -263 -1045 -18 -33 -63 -91 -102 -130 -131 -130 -279
-194 -471 -203 -187 -8 -283 26 -401 143 -40 39 -73 75 -73 80 1 6 33 30 73
55 148 92 315 226 463 374 267 266 383 459 391 651 4 85 2 93 -26 140 -51 89
-145 136 -314 156 -181 23 -398 -22 -551 -113 -89 -52 -219 -178 -286 -274
-96 -139 -177 -339 -220 -542 -28 -130 -36 -342 -18 -444 l14 -78 -120 -88
c-67 -49 -143 -104 -170 -122 -86 -58 -251 -148 -254 -139 -5 13 55 265 243
1019 164 654 165 662 149 695 -23 50 -64 69 -196 95 -182 35 -214 16 -247
-144 -12 -55 -23 -101 -26 -104 -2 -2 -28 22 -57 54 -180 196 -411 213 -661
47 -198 -132 -364 -361 -482 -668 -55 -141 -73 -227 -89 -406 -10 -127 -15
-151 -39 -191 -32 -55 -92 -109 -156 -140 -64 -32 -206 -33 -247 -2 -44 32
-68 90 -72 170 -5 92 8 171 73 449 82 354 90 401 90 570 0 135 -2 155 -23 200
-42 91 -93 127 -210 146 -98 16 -203 0 -301 -48 -61 -29 -98 -57 -187 -144
-61 -60 -113 -109 -116 -109 -3 0 3 35 13 78 42 172 19 201 -187 242 -101 20
-113 21 -146 7 -20 -9 -44 -27 -53 -40 -9 -14 -36 -123 -60 -244 -24 -120 -62
-300 -84 -399 -22 -100 -70 -320 -105 -490 -36 -170 -79 -370 -96 -444 -53
-227 -40 -250 162 -291 135 -28 187 -18 219 43 5 9 45 196 88 415 44 219 96
454 116 522 99 345 228 503 420 519 81 6 112 -18 124 -98 15 -92 -1 -204 -74
-525 -89 -390 -100 -483 -70 -600 22 -82 61 -150 118 -200 66 -60 139 -86 257
-92 240 -13 388 54 542 246 l35 44 34 -64 c42 -79 119 -158 187 -193 91 -46
163 -59 292 -53 155 7 251 38 355 113 43 30 79 54 80 52 1 -2 -4 -32 -12 -68
-8 -36 -17 -85 -21 -109 -9 -56 -21 -64 -202 -146 -283 -128 -391 -208 -457
-341 -31 -64 -37 -88 -41 -158 -3 -52 0 -98 8 -121 46 -139 271 -227 472 -184
250 54 430 284 544 698 19 69 34 135 34 148 0 15 8 27 23 32 84 33 409 233
564 347 40 30 76 54 80 53 5 0 28 -26 52 -57 82 -106 187 -173 338 -214 116
-32 385 -31 533 1 227 48 377 115 484 212 35 33 67 59 70 59 3 0 6 -8 6 -17 0
-36 58 -139 98 -175 114 -103 298 -142 483 -103 248 52 447 256 606 621 50
114 57 139 61 210 4 66 1 83 -13 97 -20 21 -45 21 -89 3 -46 -19 -77 -64 -124
-178 -106 -261 -227 -391 -362 -390 -90 1 -150 52 -182 156 -45 148 -8 387
172 1111 55 220 145 562 200 760 55 198 100 367 100 375 0 26 -38 78 -67 93
-15 8 -80 24 -144 36 -120 22 -121 22 -154 14z m-1185 -1388 c47 -45 57 -92
36 -168 -35 -129 -156 -288 -323 -426 -108 -90 -269 -201 -290 -201 -27 0 -1
224 39 350 55 173 170 342 288 423 63 44 107 58 168 54 41 -3 59 -10 82 -32z
m-1815 -23 c81 -50 121 -169 112 -332 -19 -328 -204 -701 -391 -789 -63 -29
-144 -35 -186 -14 -46 24 -93 88 -120 165 -30 87 -38 263 -17 374 50 263 242
535 424 600 56 20 142 18 178 -4z m-165 -1853 c-34 -223 -100 -366 -177 -385
-40 -10 -103 3 -129 27 -82 77 -37 212 104 308 41 29 206 121 209 117 1 -1 -2
-31 -7 -67z"/>
<path d="M7660 3879 c-348 -42 -658 -294 -960 -780 -43 -69 -128 -217 -190
-330 -61 -112 -113 -205 -114 -206 -1 -2 -42 11 -91 27 -187 63 -458 96 -587
71 -164 -33 -275 -137 -314 -293 -15 -59 -15 -70 0 -129 28 -111 101 -189 177
-189 l37 0 27 79 c30 92 76 142 147 162 51 14 282 6 375 -13 l61 -13 -59 -105
c-33 -58 -132 -247 -221 -420 -293 -572 -416 -759 -639 -976 -200 -193 -379
-283 -604 -304 -83 -8 -103 -13 -117 -31 -50 -60 22 -134 167 -173 87 -24 248
-31 331 -16 316 58 637 313 907 717 97 145 163 271 376 707 99 202 182 371
185 373 9 9 127 -91 217 -184 89 -92 154 -174 214 -273 l35 -58 -40 -167 c-49
-202 -50 -236 -12 -274 38 -38 269 -116 319 -108 46 8 81 41 94 91 17 62 466
2133 484 2232 9 49 27 144 41 210 64 320 9 404 -246 373z m-226 -546 c-4 -10
-74 -315 -155 -678 -81 -363 -149 -666 -151 -673 -2 -7 -40 31 -86 85 -87 102
-178 187 -273 255 l-56 40 107 216 c242 490 375 683 512 747 65 30 114 34 102
8z"/>
</g>
</svg>
