<svg width="32" height="32" viewBox="0 0 32 32" fill="none" xmlns="http://www.w3.org/2000/svg">
<circle cx="16" cy="16" r="16" fill="white"/>
<path d="M20.6668 13.9999C20.6668 13.3871 20.5461 12.7802 20.3116 12.2141C20.0771 11.6479 19.7333 11.1334 19.3 10.7001C18.8667 10.2667 18.3522 9.923 17.786 9.68848C17.2198 9.45396 16.613 9.33325 16.0002 9.33325C15.3873 9.33325 14.7805 9.45396 14.2143 9.68848C13.6481 9.923 13.1337 10.2667 12.7003 10.7001C12.267 11.1334 11.9232 11.6479 11.6887 12.2141C11.4542 12.7802 11.3335 13.3871 11.3335 13.9999C11.3335 14.9246 11.6068 15.7846 12.0702 16.5099H12.0648C13.6382 18.9733 16.0002 22.6666 16.0002 22.6666L19.9355 16.5099H19.9308C20.4111 15.7608 20.6665 14.8897 20.6668 13.9999V13.9999ZM16.0002 15.9999C15.4697 15.9999 14.961 15.7892 14.5859 15.4141C14.2109 15.0391 14.0002 14.5304 14.0002 13.9999C14.0002 13.4695 14.2109 12.9608 14.5859 12.5857C14.961 12.2106 15.4697 11.9999 16.0002 11.9999C16.5306 11.9999 17.0393 12.2106 17.4144 12.5857C17.7895 12.9608 18.0002 13.4695 18.0002 13.9999C18.0002 14.5304 17.7895 15.0391 17.4144 15.4141C17.0393 15.7892 16.5306 15.9999 16.0002 15.9999Z" fill="#CC3333"/>
</svg>
